<svg width="300" height="300" viewBox="0 0 300 300" fill="none" xmlns="http://www.w3.org/2000/svg">
<circle cx="150" cy="150" r="148.5" fill="#380F63" stroke="#380F63" stroke-width="3"/>
<path d="M186.575 115.352H164.631V113.762C164.631 112.884 163.908 112.172 163.017 112.172H158.014C157.759 110.937 157.211 109.806 156.447 108.85L170.749 90.5652C171.293 89.8698 171.162 88.8713 170.456 88.3353C169.751 87.7993 168.737 87.9284 168.194 88.6241L153.982 106.792C152.832 106.169 151.512 105.812 150.109 105.812C148.706 105.812 147.386 106.169 146.235 106.792L132.024 88.6241C131.48 87.9284 130.467 87.7993 129.761 88.3353C129.055 88.8715 128.924 89.8698 129.468 90.5652L143.771 108.85C143.006 109.805 142.459 110.937 142.203 112.172H137.2C136.309 112.172 135.587 112.884 135.587 113.762V115.352H113.642C110.973 115.352 108.802 117.492 108.802 120.122V164.641C108.802 167.271 110.973 169.411 113.642 169.411H186.575C189.244 169.411 191.416 167.271 191.416 164.641V120.122C191.416 117.492 189.244 115.352 186.575 115.352V115.352ZM188.189 164.641C188.189 165.518 187.465 166.231 186.575 166.231H113.642C112.753 166.231 112.029 165.518 112.029 164.641V120.122C112.029 119.245 112.753 118.532 113.642 118.532H135.587V120.122C135.587 121 136.309 121.712 137.2 121.712H163.017C163.908 121.712 164.631 121 164.631 120.122V118.532H186.575C187.465 118.532 188.189 119.245 188.189 120.122V164.641Z" fill="#F1B406"/>
<path d="M138.814 136.022C138.814 131.638 135.195 128.072 130.746 128.072C126.297 128.072 122.678 131.638 122.678 136.022C122.678 140.405 126.297 143.972 130.746 143.972C135.195 143.972 138.814 140.405 138.814 136.022ZM130.746 140.792C128.077 140.792 125.905 138.652 125.905 136.022C125.905 133.392 128.077 131.252 130.746 131.252C133.415 131.252 135.587 133.392 135.587 136.022C135.587 138.652 133.415 140.792 130.746 140.792Z" fill="#F1B406"/>
<path d="M130.746 143.972C124.518 143.972 119.451 148.964 119.451 155.101V158.281C119.451 159.159 120.174 159.871 121.065 159.871H140.427C141.318 159.871 142.041 159.159 142.041 158.281V155.101C142.041 148.964 136.974 143.972 130.746 143.972ZM138.814 156.691H122.678V155.101C122.678 150.718 126.297 147.152 130.746 147.152C135.195 147.152 138.814 150.718 138.814 155.101V156.691Z" fill="#F1B406"/>
<path d="M180.121 137.612H150.109C149.218 137.612 148.495 138.324 148.495 139.202C148.495 140.08 149.218 140.792 150.109 140.792H180.121C181.012 140.792 181.734 140.08 181.734 139.202C181.734 138.324 181.012 137.612 180.121 137.612Z" fill="#F1B406"/>
<path d="M180.121 147.152H150.109C149.218 147.152 148.495 147.863 148.495 148.741C148.495 149.62 149.218 150.331 150.109 150.331H180.121C181.012 150.331 181.734 149.62 181.734 148.741C181.734 147.863 181.012 147.152 180.121 147.152Z" fill="#F1B406"/>
<path d="M180.121 156.691H150.109C149.218 156.691 148.495 157.403 148.495 158.281C148.495 159.159 149.218 159.871 150.109 159.871H180.121C181.012 159.871 181.734 159.159 181.734 158.281C181.734 157.403 181.012 156.691 180.121 156.691Z" fill="#F1B406"/>
<path d="M153.336 131.252H156.563C157.454 131.252 158.176 130.54 158.176 129.662C158.176 128.784 157.454 128.072 156.563 128.072H153.336C152.445 128.072 151.722 128.784 151.722 129.662C151.722 130.54 152.445 131.252 153.336 131.252Z" fill="#F1B406"/>
<path d="M163.017 131.252H166.244C167.135 131.252 167.858 130.54 167.858 129.662C167.858 128.784 167.135 128.072 166.244 128.072H163.017C162.126 128.072 161.403 128.784 161.403 129.662C161.403 130.54 162.126 131.252 163.017 131.252Z" fill="#F1B406"/>
<path d="M172.698 131.252H175.925C176.816 131.252 177.539 130.54 177.539 129.662C177.539 128.784 176.816 128.072 175.925 128.072H172.698C171.807 128.072 171.085 128.784 171.085 129.662C171.085 130.54 171.807 131.252 172.698 131.252Z" fill="#F1B406"/>
<path d="M197.99 205.717L204.613 218.29C205.002 218.989 205.697 219.53 206.55 219.797C207.402 220.065 208.344 220.038 209.174 219.722C210.003 219.406 210.654 218.826 210.986 218.106C211.319 217.387 211.306 216.585 210.952 215.873L204.327 203.301C204.143 202.945 203.878 202.623 203.546 202.354C203.215 202.085 202.824 201.874 202.397 201.734C201.97 201.594 201.514 201.527 201.056 201.538C200.598 201.548 200.147 201.635 199.729 201.795C199.311 201.954 198.934 202.182 198.621 202.466C198.307 202.749 198.062 203.083 197.9 203.448C197.739 203.812 197.663 204.2 197.679 204.59C197.694 204.979 197.8 205.362 197.99 205.717V205.717Z" fill="#F1B406"/>
<path d="M239.758 146.043C244.794 141.743 250 137.297 250 131.449C250 125.601 244.794 121.154 239.758 116.858C236.556 114.123 233.247 111.288 232.261 108.713C231.201 105.938 231.931 101.862 232.638 97.9114C233.691 92.0383 234.778 85.9642 230.902 81.4328C226.985 76.8557 219.813 75.8634 212.878 74.9014C208.287 74.2651 203.542 73.6069 200.825 71.926C198.165 70.2788 195.992 66.6755 193.893 63.1904C190.669 57.8404 187.324 52.2997 180.906 50.5276C174.755 48.8281 168.36 51.5554 162.182 54.1967C157.932 56.0143 153.538 57.8927 149.996 57.8927C146.455 57.8927 142.06 56.0143 137.81 54.1967C131.632 51.5571 125.241 48.8264 119.087 50.5276C112.668 52.2997 109.329 57.8404 106.099 63.1972C104 66.684 101.829 70.2855 99.1687 71.9344C96.4525 73.6221 91.7047 74.2735 87.1136 74.9081C80.1794 75.8701 73.007 76.8625 69.0905 81.4412C65.2157 85.9727 66.3029 92.045 67.3545 97.9182C68.0608 101.861 68.7909 105.936 67.7314 108.719C66.7394 111.303 63.436 114.13 60.2337 116.864C55.1982 121.156 50 125.601 50 131.449C50 137.297 55.2061 141.744 60.2417 146.043C63.4439 148.775 66.7533 151.612 67.7394 154.188C68.7989 156.962 68.0687 161.038 67.3624 164.979C66.3089 170.854 65.2216 176.928 69.0984 181.459C73.015 186.038 80.1853 187.029 87.1215 187.991C88.2326 188.144 89.3516 188.299 90.4508 188.472L67.8505 231.339C67.5829 231.85 67.4913 232.415 67.5865 232.968C67.6816 233.522 67.9595 234.041 68.3879 234.465C68.8163 234.89 69.3775 235.202 70.0062 235.365C70.635 235.529 71.3055 235.537 71.9396 235.39L95.2284 229.942L105.942 248.348C106.229 248.842 106.672 249.257 107.222 249.548C107.771 249.838 108.406 249.992 109.053 249.992H109.121C109.779 249.981 110.42 249.811 110.969 249.502C111.518 249.193 111.953 248.758 112.222 248.246L131.784 211.127C133.806 210.408 135.824 209.549 137.818 208.697C142.06 206.886 146.455 205.008 149.996 205.008C153.538 205.008 157.932 206.886 162.182 208.702C164.176 209.554 166.19 210.407 168.214 211.126L187.778 248.255C188.047 248.766 188.482 249.201 189.031 249.51C189.58 249.819 190.221 249.989 190.879 250H190.947C191.594 250 192.229 249.847 192.778 249.556C193.328 249.266 193.771 248.85 194.058 248.356L204.772 229.95L228.06 235.398C228.695 235.546 229.365 235.537 229.994 235.374C230.623 235.21 231.184 234.898 231.612 234.474C232.04 234.049 232.318 233.53 232.414 232.977C232.509 232.423 232.417 231.858 232.15 231.348L209.549 188.48C210.648 188.311 211.767 188.153 212.878 187.999C219.813 187.039 226.985 186.046 230.902 181.468C234.776 176.938 233.689 170.864 232.638 164.991C231.931 161.048 231.201 156.972 232.261 154.189C233.247 151.604 236.556 148.775 239.758 146.043ZM108.889 240.124L100.173 225.147C99.8155 224.532 99.2177 224.042 98.4819 223.761C97.7461 223.481 96.9184 223.427 96.141 223.609L77.1934 228.041L97.2204 190.051C97.9052 190.297 98.5576 190.604 99.1667 190.966C101.827 192.613 104 196.216 106.099 199.702C109.329 205.06 112.668 210.601 119.087 212.373C120.429 212.737 121.832 212.911 123.241 212.888L108.889 240.124ZM222.799 228.041L203.851 223.609C203.074 223.426 202.246 223.48 201.51 223.761C200.774 224.041 200.176 224.532 199.819 225.147L191.104 240.124L176.753 212.898H176.896C178.257 212.903 179.61 212.724 180.906 212.369C187.324 210.596 190.663 205.057 193.893 199.698C195.992 196.213 198.163 192.61 200.823 190.963C201.433 190.6 202.086 190.294 202.772 190.048L222.799 228.041ZM225.656 152.368C224.088 156.475 224.943 161.256 225.773 165.87C226.614 170.563 227.483 175.416 225.287 177.983C223.051 180.595 217.311 181.392 211.761 182.16C206.369 182.907 200.792 183.679 196.738 186.188C192.738 188.664 190.191 192.903 187.713 197.006C185.134 201.296 182.453 205.733 178.761 206.753C175.314 207.705 170.229 205.526 165.299 203.423C160.327 201.296 155.18 199.099 149.996 199.099C144.812 199.099 139.665 201.293 134.693 203.423C129.759 205.526 124.67 207.706 121.227 206.754C117.535 205.742 114.861 201.298 112.275 197.008C109.805 192.905 107.25 188.666 103.25 186.19C99.1945 183.68 93.6173 182.907 88.2247 182.16C82.6693 181.392 76.9374 180.597 74.7014 177.983C72.5051 175.417 73.3741 170.557 74.2153 165.87C75.0446 161.249 75.8998 156.469 74.3324 152.368C72.8324 148.441 68.9278 145.111 65.1482 141.879C61.1107 138.425 56.9442 134.857 56.9442 131.449C56.9442 128.042 61.1226 124.474 65.1621 121.026C68.9318 117.799 72.8443 114.464 74.3443 110.537C75.9117 106.431 75.0565 101.651 74.2272 97.0355C73.386 92.3437 72.517 87.4899 74.7133 84.9246C76.9493 82.3087 82.6892 81.5155 88.2386 80.7459C93.6312 79.9999 99.2084 79.2269 103.262 76.7173C107.262 74.2415 109.809 70.0003 112.287 65.8992C114.866 61.6091 117.547 57.1721 121.239 56.1527C124.684 55.1992 129.771 57.378 134.701 59.4826C139.673 61.6091 144.82 63.8064 150.004 63.8064C155.188 63.8064 160.335 61.6124 165.307 59.4826C170.231 57.378 175.328 55.2009 178.769 56.1527C182.461 57.1654 185.136 61.6091 187.721 65.8992C190.191 70.0003 192.746 74.2415 196.746 76.7173C200.802 79.2269 206.377 79.9999 211.769 80.7459C217.325 81.5155 223.059 82.3104 225.295 84.9246C227.491 87.4916 226.622 92.3505 225.781 97.0372C224.951 101.658 224.096 106.438 225.664 110.539C227.164 114.466 231.068 117.796 234.846 121.028C238.885 124.476 243.064 128.044 243.064 131.451C243.064 134.859 238.885 138.426 234.848 141.876C231.06 145.106 227.156 148.436 225.656 152.363V152.368Z" fill="#F1B406"/>
<path d="M149.996 73.082C136.424 73.0817 123.158 76.5047 111.873 82.9183C100.588 89.3318 91.7932 98.4478 86.5994 109.113C81.4056 119.779 80.0466 131.515 82.6941 142.838C85.3417 154.161 91.877 164.561 101.474 172.724C111.07 180.887 123.297 186.446 136.608 188.699C149.919 190.951 163.716 189.795 176.254 185.377C188.793 180.959 199.509 173.477 207.049 163.878C214.589 154.279 218.613 142.994 218.612 131.449C218.592 115.975 211.356 101.139 198.492 90.1967C185.629 79.2544 168.188 73.0995 149.996 73.082ZM149.996 183.911C137.798 183.912 125.874 180.835 115.731 175.071C105.589 169.306 97.6834 161.113 93.0152 151.527C88.3469 141.941 87.1253 131.392 89.5047 121.216C91.8842 111.039 97.758 101.691 106.383 94.3537C115.008 87.0165 125.998 82.0199 137.961 79.9955C149.925 77.9711 162.326 79.0099 173.595 82.9806C184.865 86.9512 194.497 93.6754 201.274 102.303C208.051 110.93 211.668 121.073 211.668 131.449C211.65 145.358 205.146 158.693 193.585 168.528C182.023 178.363 166.347 183.895 149.996 183.911V183.911Z" fill="#F1B406"/>
</svg>
