<svg width="300" height="300" viewBox="0 0 300 300" fill="none" xmlns="http://www.w3.org/2000/svg">
<circle cx="150" cy="150" r="148.5" fill="#380F63" stroke="#380F63" stroke-width="3"/>
<path d="M197.99 205.717L204.613 218.29C205.002 218.989 205.697 219.53 206.55 219.797C207.402 220.065 208.344 220.038 209.174 219.722C210.003 219.406 210.654 218.826 210.986 218.106C211.319 217.387 211.306 216.585 210.952 215.873L204.327 203.301C204.143 202.945 203.878 202.623 203.546 202.354C203.215 202.085 202.824 201.874 202.397 201.734C201.97 201.594 201.514 201.527 201.056 201.538C200.598 201.548 200.147 201.635 199.729 201.795C199.311 201.954 198.934 202.182 198.621 202.466C198.307 202.749 198.062 203.083 197.9 203.448C197.739 203.812 197.663 204.2 197.679 204.59C197.694 204.979 197.8 205.362 197.99 205.717V205.717Z" fill="#F1B406"/>
<path d="M239.758 146.043C244.794 141.743 250 137.297 250 131.449C250 125.601 244.794 121.154 239.758 116.858C236.556 114.123 233.247 111.288 232.261 108.713C231.201 105.938 231.931 101.862 232.638 97.9114C233.691 92.0383 234.778 85.9642 230.902 81.4328C226.985 76.8557 219.813 75.8634 212.878 74.9014C208.287 74.2651 203.542 73.6069 200.825 71.926C198.165 70.2788 195.992 66.6755 193.893 63.1904C190.669 57.8404 187.324 52.2997 180.906 50.5276C174.755 48.8281 168.36 51.5554 162.182 54.1967C157.932 56.0143 153.538 57.8927 149.996 57.8927C146.455 57.8927 142.06 56.0143 137.81 54.1967C131.632 51.5571 125.241 48.8264 119.087 50.5276C112.668 52.2997 109.329 57.8404 106.099 63.1972C104 66.684 101.829 70.2855 99.1687 71.9344C96.4525 73.6221 91.7047 74.2735 87.1136 74.9081C80.1794 75.8701 73.007 76.8625 69.0905 81.4412C65.2157 85.9727 66.3029 92.045 67.3545 97.9182C68.0608 101.861 68.7909 105.936 67.7314 108.719C66.7394 111.303 63.436 114.13 60.2337 116.864C55.1982 121.156 50 125.601 50 131.449C50 137.297 55.2061 141.744 60.2417 146.043C63.4439 148.775 66.7533 151.612 67.7394 154.188C68.7989 156.962 68.0687 161.038 67.3624 164.979C66.3089 170.854 65.2216 176.928 69.0984 181.459C73.015 186.038 80.1853 187.029 87.1215 187.991C88.2326 188.144 89.3516 188.299 90.4508 188.472L67.8505 231.339C67.5829 231.85 67.4913 232.415 67.5865 232.968C67.6816 233.522 67.9595 234.041 68.3879 234.465C68.8163 234.89 69.3775 235.202 70.0062 235.365C70.635 235.529 71.3055 235.537 71.9396 235.39L95.2284 229.942L105.942 248.348C106.229 248.842 106.672 249.257 107.222 249.548C107.771 249.838 108.406 249.992 109.053 249.992H109.121C109.779 249.981 110.42 249.811 110.969 249.502C111.518 249.193 111.953 248.758 112.222 248.246L131.784 211.127C133.806 210.408 135.824 209.549 137.818 208.697C142.06 206.886 146.455 205.008 149.996 205.008C153.538 205.008 157.932 206.886 162.182 208.702C164.176 209.554 166.19 210.407 168.214 211.126L187.778 248.255C188.047 248.766 188.482 249.201 189.031 249.51C189.58 249.819 190.221 249.989 190.879 250H190.947C191.594 250 192.229 249.847 192.778 249.556C193.328 249.266 193.771 248.85 194.058 248.356L204.772 229.95L228.06 235.398C228.695 235.546 229.365 235.537 229.994 235.374C230.623 235.21 231.184 234.898 231.612 234.474C232.04 234.049 232.318 233.53 232.414 232.977C232.509 232.423 232.417 231.858 232.15 231.348L209.549 188.48C210.648 188.311 211.767 188.153 212.878 187.999C219.813 187.039 226.985 186.046 230.902 181.468C234.776 176.938 233.689 170.864 232.638 164.991C231.931 161.048 231.201 156.972 232.261 154.189C233.247 151.604 236.556 148.775 239.758 146.043ZM108.889 240.124L100.173 225.147C99.8155 224.532 99.2177 224.042 98.4819 223.761C97.7461 223.481 96.9184 223.427 96.141 223.609L77.1934 228.041L97.2204 190.051C97.9052 190.297 98.5576 190.604 99.1667 190.966C101.827 192.613 104 196.216 106.099 199.702C109.329 205.06 112.668 210.601 119.087 212.373C120.429 212.737 121.832 212.911 123.241 212.888L108.889 240.124ZM222.799 228.041L203.851 223.609C203.074 223.426 202.246 223.48 201.51 223.761C200.774 224.041 200.176 224.532 199.819 225.147L191.104 240.124L176.753 212.898H176.896C178.257 212.903 179.61 212.724 180.906 212.369C187.324 210.596 190.663 205.057 193.893 199.698C195.992 196.213 198.163 192.61 200.823 190.963C201.433 190.6 202.086 190.294 202.772 190.048L222.799 228.041ZM225.656 152.368C224.088 156.475 224.943 161.256 225.773 165.87C226.614 170.563 227.483 175.416 225.287 177.983C223.051 180.595 217.311 181.392 211.761 182.16C206.369 182.907 200.792 183.679 196.738 186.188C192.738 188.664 190.191 192.903 187.713 197.006C185.134 201.296 182.453 205.733 178.761 206.753C175.314 207.705 170.229 205.526 165.299 203.423C160.327 201.296 155.18 199.099 149.996 199.099C144.812 199.099 139.665 201.293 134.693 203.423C129.759 205.526 124.67 207.706 121.227 206.754C117.535 205.742 114.861 201.298 112.275 197.008C109.805 192.905 107.25 188.666 103.25 186.19C99.1945 183.68 93.6173 182.907 88.2247 182.16C82.6693 181.392 76.9374 180.597 74.7014 177.983C72.5051 175.417 73.3741 170.557 74.2153 165.87C75.0446 161.249 75.8998 156.469 74.3324 152.368C72.8324 148.441 68.9278 145.111 65.1482 141.879C61.1107 138.425 56.9442 134.857 56.9442 131.449C56.9442 128.042 61.1226 124.474 65.1621 121.026C68.9318 117.799 72.8443 114.464 74.3443 110.537C75.9117 106.431 75.0565 101.651 74.2272 97.0355C73.386 92.3437 72.517 87.4899 74.7133 84.9246C76.9493 82.3087 82.6892 81.5155 88.2386 80.7459C93.6312 79.9999 99.2084 79.2269 103.262 76.7173C107.262 74.2415 109.809 70.0003 112.287 65.8992C114.866 61.6091 117.547 57.1721 121.239 56.1527C124.684 55.1992 129.771 57.378 134.701 59.4826C139.673 61.6091 144.82 63.8064 150.004 63.8064C155.188 63.8064 160.335 61.6124 165.307 59.4826C170.231 57.378 175.328 55.2009 178.769 56.1527C182.461 57.1654 185.136 61.6091 187.721 65.8992C190.191 70.0003 192.746 74.2415 196.746 76.7173C200.802 79.2269 206.377 79.9999 211.769 80.7459C217.325 81.5155 223.059 82.3104 225.295 84.9246C227.491 87.4916 226.622 92.3505 225.781 97.0372C224.951 101.658 224.096 106.438 225.664 110.539C227.164 114.466 231.068 117.796 234.846 121.028C238.885 124.476 243.064 128.044 243.064 131.451C243.064 134.859 238.885 138.426 234.848 141.876C231.06 145.106 227.156 148.436 225.656 152.363V152.368Z" fill="#F1B406"/>
<path d="M149.996 73.082C136.424 73.0817 123.158 76.5047 111.873 82.9183C100.588 89.3318 91.7932 98.4478 86.5994 109.113C81.4056 119.779 80.0466 131.515 82.6941 142.838C85.3417 154.161 91.877 164.561 101.474 172.724C111.07 180.887 123.297 186.446 136.608 188.699C149.919 190.951 163.716 189.795 176.254 185.377C188.793 180.959 199.509 173.477 207.049 163.878C214.589 154.279 218.613 142.994 218.612 131.449C218.592 115.975 211.356 101.139 198.492 90.1967C185.629 79.2544 168.188 73.0995 149.996 73.082ZM149.996 183.911C137.798 183.912 125.874 180.835 115.731 175.071C105.589 169.306 97.6834 161.113 93.0152 151.527C88.3469 141.941 87.1253 131.392 89.5047 121.216C91.8842 111.039 97.758 101.691 106.383 94.3537C115.008 87.0165 125.998 82.0199 137.961 79.9955C149.925 77.9711 162.326 79.0099 173.595 82.9806C184.865 86.9512 194.497 93.6754 201.274 102.303C208.051 110.93 211.668 121.073 211.668 131.449C211.65 145.358 205.146 158.693 193.585 168.528C182.023 178.363 166.347 183.895 149.996 183.911Z" fill="#F1B406"/>
<g clip-path="url(#clip0)">
<path d="M203.564 124.383L185.655 104.815C184.992 104.092 183.783 103.913 182.867 104.403L171.304 110.589H156.224C156.028 110.589 155.834 110.624 155.646 110.67L143.954 113.501L131.821 110.71L120.032 104.403C119.131 103.921 117.944 104.085 117.274 104.784L97.4654 125.422C96.7536 126.163 96.8711 127.246 97.7299 127.868L108.112 135.383L117.427 145.941C114.703 148.382 114.756 152.232 117.59 154.616C118.846 155.673 120.444 156.269 122.087 156.408C122.03 156.721 122.001 157.039 122.001 157.362C122.001 159.028 122.772 160.594 124.172 161.771C125.573 162.95 127.435 163.599 129.416 163.599C129.443 163.599 129.469 163.597 129.495 163.596C129.494 163.639 129.491 163.681 129.491 163.723C129.491 165.389 130.263 166.956 131.663 168.134C133.064 169.311 134.926 169.96 136.906 169.96C137.297 169.96 137.684 169.934 138.064 169.884C138.225 171.271 138.936 172.621 140.196 173.681C141.641 174.897 143.54 175.505 145.439 175.505C147.338 175.505 149.236 174.897 150.682 173.681L151.816 172.727L152.292 173.05C153.726 174.218 155.587 174.802 157.448 174.802C159.347 174.802 161.246 174.194 162.691 172.978C164.166 171.737 164.888 170.1 164.858 168.47C166.794 168.495 168.742 167.888 170.217 166.648C171.691 165.408 172.413 163.772 172.385 162.143C174.402 162.17 176.315 161.518 177.743 160.317C179.218 159.076 179.941 157.439 179.911 155.809C181.849 155.834 183.795 155.227 185.27 153.986C187.788 151.869 188.112 148.595 186.245 146.179L193.046 134.198L203.27 126.798C204.115 126.186 204.244 125.126 203.564 124.383V124.383ZM119.361 108.227L127.838 112.761L109.398 131.658L102.008 126.308L119.361 108.227ZM120.557 148.292L123.116 146.14C123.193 146.075 123.275 146.013 123.358 145.955C123.859 145.612 124.464 145.407 125.106 145.358C125.124 145.357 125.143 145.357 125.161 145.356C125.252 145.35 125.344 145.346 125.436 145.347C126.313 145.357 127.127 145.659 127.731 146.195C128.917 147.249 128.853 148.971 127.589 150.034L125.109 152.121C123.854 153.176 121.812 153.176 120.557 152.121C119.303 151.064 119.303 149.347 120.557 148.292ZM127.14 159.275C126.531 158.765 126.197 158.085 126.197 157.362C126.197 156.639 126.531 155.959 127.14 155.447L132.101 151.275C133.051 150.475 134.545 150.256 135.759 150.743C137.012 151.245 137.716 152.388 137.532 153.538C137.435 154.152 137.095 154.73 136.574 155.169L131.692 159.275C131.083 159.787 130.275 160.068 129.416 160.068C128.556 160.068 127.748 159.787 127.14 159.275ZM134.63 165.637C134.022 165.126 133.688 164.447 133.688 163.723C133.688 163 134.022 162.321 134.63 161.809L139.59 157.636C140.607 156.782 142.237 156.598 143.481 157.207C144.618 157.763 145.213 158.855 145.018 159.943C144.911 160.541 144.573 161.103 144.064 161.531L139.182 165.637C138.574 166.149 137.766 166.43 136.906 166.43C136.047 166.43 135.239 166.149 134.63 165.637ZM143.163 171.185C141.908 170.13 141.908 168.413 143.163 167.357L145.721 165.205C145.799 165.14 145.88 165.079 145.963 165.021C145.965 165.02 145.967 165.018 145.969 165.017C146.385 164.733 146.874 164.543 147.396 164.46C147.408 164.458 147.42 164.457 147.432 164.455C147.522 164.442 147.614 164.431 147.705 164.424C147.742 164.421 147.778 164.421 147.816 164.419C147.891 164.416 147.965 164.411 148.041 164.412C148.917 164.422 149.733 164.723 150.337 165.26C150.411 165.326 150.481 165.395 150.544 165.465C151.509 166.526 151.379 168.102 150.182 169.11L147.714 171.186C146.459 172.241 144.418 172.241 143.163 171.185V171.185ZM182.303 151.49C181.048 152.546 179.006 152.546 177.751 151.49C177.706 151.452 177.658 151.416 177.609 151.382L164.118 139.915C163.302 139.223 161.974 139.217 161.15 139.903C160.326 140.588 160.32 141.705 161.135 142.398L174.772 153.988C174.773 153.99 174.775 153.991 174.777 153.992C176.031 155.048 176.031 156.766 174.777 157.821C174.168 158.333 173.36 158.614 172.501 158.614C171.64 158.614 170.832 158.333 170.225 157.821L161.102 150.068C160.287 149.375 158.959 149.37 158.135 150.055C157.312 150.741 157.305 151.858 158.12 152.551L167.103 160.185C167.149 160.233 167.198 160.279 167.25 160.323C168.505 161.379 168.505 163.097 167.25 164.152C165.994 165.207 163.952 165.207 162.697 164.151L157.718 159.919C156.903 159.227 155.575 159.22 154.751 159.906C153.927 160.592 153.921 161.709 154.735 162.402L159.575 166.515C159.621 166.563 159.67 166.609 159.723 166.653C160.978 167.709 160.978 169.427 159.723 170.482C158.468 171.538 156.427 171.538 155.172 170.482C155.028 170.361 154.858 170.267 154.696 170.163C154.559 170.075 154.523 170.014 154.592 169.874C154.661 169.732 154.765 169.603 154.834 169.46C154.911 169.301 154.973 169.137 155.033 168.972C155.355 168.1 155.45 167.162 155.305 166.257C155.028 164.521 153.892 162.954 152.171 161.962C151.241 161.427 150.165 161.076 149.05 160.945C149.591 158.94 148.942 156.766 147.254 155.265C145.864 154.031 143.987 153.338 141.969 153.315C141.895 153.314 141.822 153.314 141.747 153.315C141.792 151.694 141.092 150.084 139.764 148.904C138.373 147.669 136.497 146.976 134.479 146.953C133.879 146.946 133.273 147 132.688 147.113C132.438 145.651 131.563 144.298 130.236 143.331C128.918 142.371 127.26 141.838 125.494 141.817C123.635 141.795 121.809 142.372 120.428 143.42L112.318 134.228L131.721 114.345L137.905 115.768L129.829 127.755C128.852 129.204 128.606 130.887 129.134 132.492C129.662 134.098 130.901 135.434 132.625 136.256C132.732 136.307 132.841 136.356 132.951 136.403C132.959 136.406 132.967 136.409 132.976 136.413C133.266 136.534 133.564 136.639 133.866 136.727C135.273 137.137 136.792 137.181 138.257 136.841C140.166 136.396 141.755 135.353 142.731 133.905L147.979 126.115L157.35 126.673L182.303 147.661C183.557 148.718 183.557 150.435 182.303 151.49V151.49ZM183.172 143.401L159.763 123.712C159.719 123.674 159.673 123.638 159.624 123.605C159.287 123.369 158.869 123.226 158.428 123.2L146.955 122.515C146.161 122.469 145.373 122.824 144.981 123.406L139.08 132.165C138.657 132.794 137.967 133.246 137.138 133.439C136.31 133.632 135.442 133.541 134.693 133.185C133.945 132.829 133.407 132.248 133.178 131.551C132.949 130.854 133.056 130.124 133.48 129.495L141.357 117.802L144.549 117.03C144.57 117.024 144.591 117.017 144.612 117.012L156.525 114.118H170.919L188.888 133.332L183.172 143.401ZM191.637 130.562L175.019 112.784L183.5 108.247L199.028 125.212L191.637 130.562Z" fill="#F1B406"/>
<path d="M161.824 107.275C162.361 107.275 162.898 107.103 163.308 106.758L177.639 94.7032C178.459 94.0138 178.459 92.8967 177.639 92.2073C176.82 91.5179 175.492 91.5179 174.672 92.2073L160.34 104.262C159.521 104.951 159.521 106.069 160.34 106.758C160.75 107.103 161.287 107.275 161.824 107.275Z" fill="#F1B406"/>
<path d="M137.692 106.758C138.102 107.103 138.639 107.275 139.176 107.275C139.713 107.275 140.25 107.103 140.66 106.758C141.479 106.069 141.479 104.951 140.66 104.262L126.328 92.2073C125.508 91.5179 124.18 91.5179 123.361 92.2073C122.541 92.8967 122.541 94.0138 123.361 94.7032L137.692 106.758Z" fill="#F1B406"/>
<path d="M150.5 107.275C151.658 107.275 152.598 106.485 152.598 105.51V95.5341C152.598 94.5597 151.658 93.7694 150.5 93.7694C149.342 93.7694 148.402 94.5597 148.402 95.5341V105.51C148.402 106.485 149.342 107.275 150.5 107.275Z" fill="#F1B406"/>
<path d="M148.564 89.138C148.897 89.8171 149.727 90.2627 150.603 90.2242C151.468 90.1865 152.228 89.6948 152.496 89.002C152.764 88.3037 152.472 87.5079 151.777 87.0629C151.067 86.6084 150.078 86.583 149.336 86.9956C148.508 87.4557 148.187 88.3717 148.564 89.138Z" fill="#F1B406"/>
</g>
<defs>
<clipPath id="clip0">
<rect width="107" height="90" fill="white" transform="translate(97 86)"/>
</clipPath>
</defs>
</svg>
