<svg width="300" height="300" viewBox="0 0 300 300" fill="none" xmlns="http://www.w3.org/2000/svg">
<circle cx="150" cy="150" r="148.5" fill="#380F63" stroke="#380F63" stroke-width="3"/>
<path d="M197.99 205.716L204.613 218.29C205.002 218.989 205.697 219.53 206.55 219.797C207.402 220.065 208.344 220.038 209.174 219.722C210.003 219.406 210.654 218.826 210.986 218.106C211.319 217.387 211.306 216.585 210.952 215.873L204.327 203.301C204.143 202.945 203.878 202.623 203.546 202.354C203.215 202.085 202.824 201.874 202.397 201.734C201.97 201.594 201.514 201.527 201.056 201.538C200.598 201.548 200.147 201.635 199.729 201.795C199.311 201.954 198.934 202.182 198.621 202.466C198.307 202.749 198.062 203.083 197.9 203.448C197.739 203.812 197.663 204.2 197.679 204.59C197.694 204.979 197.8 205.362 197.99 205.716V205.716Z" fill="#F1B406"/>
<path d="M239.758 146.043C244.794 141.743 250 137.297 250 131.449C250 125.601 244.794 121.154 239.758 116.858C236.556 114.123 233.247 111.288 232.261 108.713C231.201 105.938 231.931 101.862 232.638 97.9114C233.691 92.0383 234.778 85.9642 230.902 81.4328C226.985 76.8557 219.813 75.8634 212.878 74.9014C208.287 74.2651 203.542 73.6069 200.825 71.926C198.165 70.2788 195.992 66.6755 193.893 63.1904C190.669 57.8404 187.324 52.2997 180.906 50.5276C174.755 48.8281 168.36 51.5554 162.182 54.1967C157.932 56.0143 153.538 57.8927 149.996 57.8927C146.455 57.8927 142.06 56.0143 137.81 54.1967C131.632 51.5571 125.241 48.8264 119.087 50.5276C112.668 52.2997 109.329 57.8404 106.099 63.1972C104 66.684 101.829 70.2855 99.1687 71.9344C96.4525 73.6221 91.7047 74.2735 87.1136 74.9081C80.1794 75.8701 73.007 76.8625 69.0905 81.4412C65.2157 85.9727 66.3029 92.045 67.3545 97.9182C68.0608 101.861 68.7909 105.936 67.7314 108.719C66.7394 111.303 63.436 114.13 60.2337 116.864C55.1982 121.156 50 125.601 50 131.449C50 137.297 55.2061 141.744 60.2417 146.043C63.4439 148.775 66.7533 151.612 67.7394 154.188C68.7989 156.962 68.0687 161.038 67.3624 164.979C66.3089 170.854 65.2216 176.928 69.0984 181.459C73.015 186.038 80.1853 187.029 87.1215 187.991C88.2326 188.144 89.3516 188.299 90.4508 188.472L67.8505 231.339C67.5829 231.85 67.4913 232.415 67.5865 232.968C67.6816 233.522 67.9595 234.041 68.3879 234.465C68.8163 234.89 69.3775 235.202 70.0062 235.365C70.635 235.529 71.3055 235.537 71.9396 235.39L95.2284 229.942L105.942 248.348C106.229 248.842 106.672 249.257 107.222 249.548C107.771 249.838 108.406 249.992 109.053 249.992H109.121C109.779 249.981 110.42 249.811 110.969 249.502C111.518 249.193 111.953 248.758 112.222 248.246L131.784 211.127C133.806 210.408 135.824 209.549 137.818 208.697C142.06 206.886 146.455 205.008 149.996 205.008C153.538 205.008 157.932 206.886 162.182 208.702C164.176 209.554 166.19 210.407 168.214 211.126L187.778 248.255C188.047 248.766 188.482 249.201 189.031 249.51C189.58 249.819 190.221 249.989 190.879 250H190.947C191.594 250 192.229 249.847 192.778 249.556C193.328 249.266 193.771 248.85 194.058 248.356L204.772 229.95L228.06 235.398C228.695 235.546 229.365 235.537 229.994 235.374C230.623 235.21 231.184 234.898 231.612 234.474C232.04 234.049 232.318 233.53 232.414 232.977C232.509 232.423 232.417 231.858 232.15 231.348L209.549 188.48C210.648 188.311 211.767 188.153 212.878 187.999C219.813 187.039 226.985 186.046 230.902 181.468C234.776 176.938 233.689 170.864 232.638 164.991C231.931 161.048 231.201 156.972 232.261 154.189C233.247 151.604 236.556 148.775 239.758 146.043ZM108.889 240.124L100.173 225.147C99.8155 224.532 99.2177 224.042 98.4819 223.761C97.7461 223.481 96.9184 223.427 96.141 223.609L77.1934 228.041L97.2204 190.051C97.9052 190.297 98.5576 190.604 99.1667 190.966C101.827 192.613 104 196.216 106.099 199.702C109.329 205.06 112.668 210.601 119.087 212.373C120.429 212.737 121.832 212.911 123.241 212.888L108.889 240.124ZM222.799 228.041L203.851 223.609C203.074 223.426 202.246 223.48 201.51 223.761C200.774 224.041 200.176 224.532 199.819 225.147L191.104 240.124L176.753 212.898H176.896C178.257 212.903 179.61 212.724 180.906 212.369C187.324 210.596 190.663 205.057 193.893 199.698C195.992 196.213 198.163 192.61 200.823 190.963C201.433 190.6 202.086 190.294 202.772 190.048L222.799 228.041ZM225.656 152.368C224.088 156.475 224.943 161.256 225.773 165.87C226.614 170.563 227.483 175.416 225.287 177.983C223.051 180.595 217.311 181.392 211.761 182.16C206.369 182.907 200.792 183.679 196.738 186.188C192.738 188.664 190.191 192.903 187.713 197.006C185.134 201.296 182.453 205.733 178.761 206.753C175.314 207.705 170.229 205.526 165.299 203.423C160.327 201.296 155.18 199.099 149.996 199.099C144.812 199.099 139.665 201.293 134.693 203.423C129.759 205.526 124.67 207.706 121.227 206.754C117.535 205.742 114.861 201.298 112.275 197.008C109.805 192.905 107.25 188.666 103.25 186.19C99.1945 183.68 93.6173 182.907 88.2247 182.16C82.6693 181.392 76.9374 180.597 74.7014 177.983C72.5051 175.417 73.3741 170.557 74.2153 165.87C75.0446 161.249 75.8998 156.469 74.3324 152.368C72.8324 148.441 68.9278 145.111 65.1482 141.879C61.1107 138.425 56.9442 134.857 56.9442 131.449C56.9442 128.042 61.1226 124.474 65.1621 121.026C68.9318 117.799 72.8443 114.464 74.3443 110.537C75.9117 106.431 75.0565 101.651 74.2272 97.0355C73.386 92.3437 72.517 87.4899 74.7133 84.9246C76.9493 82.3087 82.6892 81.5155 88.2386 80.7459C93.6312 79.9999 99.2084 79.2269 103.262 76.7173C107.262 74.2415 109.809 70.0003 112.287 65.8992C114.866 61.6091 117.547 57.1721 121.239 56.1527C124.684 55.1992 129.771 57.378 134.701 59.4826C139.673 61.6091 144.82 63.8064 150.004 63.8064C155.188 63.8064 160.335 61.6124 165.307 59.4826C170.231 57.378 175.328 55.2009 178.769 56.1527C182.461 57.1654 185.136 61.6091 187.721 65.8992C190.191 70.0003 192.746 74.2415 196.746 76.7173C200.802 79.2269 206.377 79.9999 211.769 80.7459C217.325 81.5155 223.059 82.3104 225.295 84.9246C227.491 87.4916 226.622 92.3505 225.781 97.0372C224.951 101.658 224.096 106.438 225.664 110.539C227.164 114.466 231.068 117.796 234.846 121.028C238.885 124.476 243.064 128.044 243.064 131.451C243.064 134.859 238.885 138.426 234.848 141.876C231.06 145.106 227.156 148.436 225.656 152.363V152.368Z" fill="#F1B406"/>
<path d="M149.996 73.082C136.424 73.0817 123.158 76.5047 111.873 82.9183C100.588 89.3318 91.7932 98.4478 86.5994 109.113C81.4056 119.779 80.0466 131.515 82.6941 142.838C85.3417 154.161 91.877 164.561 101.474 172.724C111.07 180.887 123.297 186.446 136.608 188.699C149.919 190.951 163.716 189.795 176.254 185.377C188.793 180.959 199.509 173.477 207.049 163.878C214.589 154.279 218.613 142.994 218.612 131.449C218.592 115.975 211.356 101.139 198.492 90.1967C185.629 79.2544 168.188 73.0995 149.996 73.082ZM149.996 183.911C137.798 183.912 125.874 180.835 115.731 175.071C105.589 169.306 97.6834 161.113 93.0152 151.527C88.3469 141.941 87.1253 131.392 89.5047 121.216C91.8842 111.039 97.758 101.691 106.383 94.3537C115.008 87.0165 125.998 82.0199 137.961 79.9955C149.925 77.9711 162.326 79.0099 173.595 82.9806C184.865 86.9512 194.497 93.6754 201.274 102.303C208.051 110.93 211.668 121.073 211.668 131.449C211.65 145.358 205.146 158.693 193.585 168.528C182.023 178.363 166.347 183.895 149.996 183.911Z" fill="#F1B406"/>
<path d="M170.365 109.867H173.499V112.1H170.365V109.867Z" fill="#F1B406"/>
<path d="M157.832 109.867H160.966V112.1H157.832V109.867Z" fill="#F1B406"/>
<path d="M165.665 119.917C168.301 119.917 170.365 118.69 170.365 117.125H167.232C167.232 117.322 166.637 117.683 165.665 117.683C164.694 117.683 164.099 117.322 164.099 117.125H160.966C160.966 118.69 163.03 119.917 165.665 119.917Z" fill="#F1B406"/>
<path d="M196.776 133.904C196.544 133.335 196.134 132.811 195.575 132.373C195.016 131.934 194.324 131.593 193.552 131.374L193.512 131.363C192.284 131.017 190.921 130.997 189.673 131.307C188.425 131.617 187.375 132.237 186.715 133.053C186.705 133.066 186.696 133.078 186.686 133.091L177.539 145.616C175.167 145.738 172.947 146.494 171.326 147.734C169.704 148.974 168.802 150.605 168.799 152.3H139.033V150.067H152.741C153.675 150.066 154.571 149.801 155.232 149.33C155.893 148.859 156.265 148.22 156.266 147.554V128.581C156.643 128.416 157.025 128.262 157.41 128.117L164.391 135.082C164.536 135.227 164.727 135.345 164.949 135.426C165.17 135.507 165.416 135.55 165.665 135.55C165.915 135.55 166.161 135.507 166.382 135.426C166.604 135.345 166.795 135.227 166.94 135.082L173.92 128.117C177.226 129.361 180.301 131.366 182.868 133.96L185.428 132.673C182.458 129.672 178.838 127.366 174.915 125.971L173.828 122.097L174.382 121.853C175.708 121.273 176.851 120.504 177.739 119.594C178.628 118.685 179.243 117.654 179.546 116.567H182.115C183.569 116.565 184.963 116.153 185.991 115.421C187.019 114.688 187.597 113.695 187.598 112.658V110.425C187.598 109.685 187.303 108.961 186.748 108.336C186.194 107.711 185.402 107.211 184.465 106.894V101.492C184.461 98.9752 183.057 96.5626 180.56 94.7832C178.064 93.0038 174.679 92.0028 171.149 92H160.182C156.652 92.0028 153.267 93.0038 150.771 94.7832C148.274 96.5626 146.87 98.9752 146.866 101.492V102.05H149.999V101.492C150.002 99.5673 151.076 97.7224 152.985 96.3617C154.894 95.0009 157.482 94.2355 160.182 94.2333H171.149C173.849 94.2355 176.437 95.0009 178.346 96.3617C180.255 97.7224 181.329 99.5673 181.332 101.492V106.517H179.765C179.765 106.221 179.6 105.936 179.306 105.727C179.013 105.518 178.614 105.4 178.199 105.4H174.537C172.103 105.395 169.712 104.944 167.595 104.089C165.477 103.234 163.704 102.005 162.446 100.521L162.309 100.359C162.187 100.213 162.019 100.09 161.82 99.9971C161.62 99.9046 161.393 99.8457 161.157 99.825C160.921 99.8043 160.681 99.8222 160.456 99.8774C160.231 99.9326 160.026 100.024 159.858 100.144L152.025 105.727C151.879 105.831 151.764 105.954 151.685 106.089C151.606 106.225 151.566 106.37 151.566 106.517H149.999V104.283H146.866V106.894C145.929 107.211 145.137 107.711 144.583 108.336C144.028 108.961 143.733 109.685 143.733 110.425V112.658C143.734 113.695 144.312 114.688 145.34 115.421C146.368 116.153 147.762 116.565 149.216 116.567H151.796C152.102 117.641 152.714 118.658 153.592 119.558C154.471 120.457 155.598 121.219 156.904 121.797L157.511 122.068L156.416 125.971C156.072 126.093 155.731 126.222 155.391 126.358C155.061 126.088 154.653 125.872 154.196 125.724C153.739 125.576 153.243 125.5 152.741 125.5H135.617L134.738 122.367C136.907 121.554 138.632 120.246 139.636 118.652C140.641 117.058 140.867 115.271 140.279 113.575C139.692 111.879 138.324 110.372 136.394 109.295C134.464 108.217 132.084 107.632 129.633 107.632C127.182 107.632 124.801 108.217 122.872 109.295C120.942 110.372 119.574 111.879 118.986 113.575C118.399 115.271 118.625 117.058 119.629 118.652C120.634 120.246 122.358 121.554 124.528 122.367L123.648 125.5H106.525C105.59 125.501 104.694 125.766 104.034 126.237C103.373 126.708 103.001 127.346 103 128.013V133.317H106.133V128.013C106.133 127.938 106.175 127.867 106.248 127.815C106.321 127.763 106.421 127.733 106.525 127.733H152.741C152.845 127.733 152.944 127.763 153.018 127.815C153.091 127.867 153.132 127.938 153.132 128.013V147.554C153.132 147.628 153.091 147.699 153.018 147.752C152.944 147.804 152.845 147.833 152.741 147.833H138.489L135.874 137.584C135.808 137.326 135.618 137.094 135.337 136.926C135.055 136.758 134.7 136.667 134.333 136.667H124.933C124.566 136.667 124.211 136.758 123.929 136.926C123.647 137.094 123.457 137.326 123.392 137.584L120.777 147.833H106.525C106.421 147.833 106.321 147.804 106.248 147.752C106.175 147.699 106.133 147.628 106.133 147.554V135.55H103V147.554C103.001 148.22 103.373 148.859 104.034 149.33C104.694 149.801 105.59 150.066 106.525 150.067H120.233V152.3H104.567C104.151 152.3 103.753 152.418 103.459 152.627C103.165 152.836 103 153.121 103 153.417V157.883C103 158.179 103.165 158.464 103.459 158.673C103.753 158.882 104.151 159 104.567 159H168.799V156.767H106.133V154.533H193.865V156.767H171.932V159H195.432C195.847 159 196.246 158.882 196.539 158.673C196.833 158.464 196.998 158.179 196.998 157.883V153.417C196.998 153.121 196.833 152.836 196.539 152.627C196.246 152.418 195.847 152.3 195.432 152.3H193.845C193.764 149.977 193.407 147.663 192.778 145.383L189.704 145.817C190.293 147.954 190.63 150.123 190.71 152.3H187.598C187.601 150.864 186.952 149.466 185.749 148.314L195.993 137.256C196.472 136.776 196.791 136.225 196.926 135.644C197.062 135.063 197.01 134.468 196.776 133.904ZM129.572 121.033C128.331 121.022 127.146 120.661 126.277 120.029C125.408 119.398 124.925 118.547 124.933 117.662C124.941 116.777 125.44 115.931 126.32 115.307C127.201 114.684 128.392 114.334 129.633 114.334C130.874 114.334 132.065 114.684 132.945 115.307C133.826 115.931 134.325 116.777 134.333 117.662C134.341 118.547 133.857 119.398 132.988 120.029C132.119 120.661 130.935 121.022 129.694 121.033H129.633H129.572ZM129.633 109.867C130.794 109.867 131.941 110.051 132.99 110.406C134.04 110.761 134.965 111.278 135.7 111.919C136.434 112.561 136.96 113.31 137.238 114.114C137.517 114.918 137.541 115.755 137.309 116.567C136.948 115.306 135.987 114.172 134.588 113.358C133.189 112.545 131.439 112.1 129.634 112.1C127.828 112.1 126.078 112.545 124.679 113.358C123.28 114.172 122.319 115.306 121.958 116.567C121.726 115.756 121.75 114.918 122.029 114.114C122.307 113.31 122.832 112.561 123.567 111.92C124.301 111.279 125.227 110.762 126.276 110.407C127.325 110.052 128.471 109.867 129.633 109.867ZM126.844 125.5L127.512 123.12C128.913 123.316 130.353 123.316 131.754 123.12L132.422 125.5H126.844ZM182.115 108.75C182.738 108.75 183.336 108.927 183.776 109.241C184.217 109.555 184.464 109.981 184.465 110.425V112.658C184.464 113.102 184.217 113.528 183.776 113.842C183.336 114.156 182.738 114.333 182.115 114.333H179.765V108.75H182.115ZM146.866 112.658V110.425C146.867 109.981 147.114 109.555 147.555 109.241C147.995 108.927 148.593 108.75 149.216 108.75H151.566V114.333H149.216C148.593 114.333 147.995 114.156 147.555 113.842C147.114 113.528 146.867 113.102 146.866 112.658ZM154.699 114.932V106.979L160.718 102.689C162.328 104.219 164.413 105.462 166.811 106.32C169.209 107.178 171.854 107.628 174.537 107.633H176.632V114.968C176.637 115.967 176.281 116.951 175.599 117.824C174.916 118.697 173.93 119.431 172.735 119.954L168.984 121.607C167.991 122.049 166.844 122.282 165.673 122.28C164.502 122.278 163.356 122.041 162.366 121.596L158.565 119.903C157.379 119.378 156.401 118.646 155.724 117.776C155.048 116.906 154.695 115.927 154.699 114.932ZM160.705 123.49C162.19 124.157 163.909 124.513 165.665 124.516C167.421 124.519 169.142 124.169 170.632 123.506L170.984 123.351L171.829 126.361L165.665 132.512L159.502 126.361L160.351 123.332L160.705 123.49ZM123.366 152.3V150.167L126.24 138.9H133.025L135.899 150.167V152.3H123.366ZM171.932 152.3C171.932 151.115 172.592 149.979 173.767 149.142C174.943 148.304 176.537 147.833 178.199 147.833C179.861 147.833 181.454 148.304 182.63 149.142C183.805 149.979 184.465 151.115 184.465 152.3H171.932ZM193.426 135.976C193.415 135.987 193.404 135.998 193.393 136.01L183.448 146.745C182.659 146.364 181.794 146.072 180.881 145.878L189.451 134.145C189.737 133.8 190.186 133.539 190.717 133.409C191.248 133.28 191.827 133.289 192.349 133.436L192.389 133.447C192.719 133.542 193.015 133.688 193.255 133.876C193.494 134.064 193.671 134.288 193.771 134.531C193.871 134.775 193.892 135.032 193.833 135.282C193.774 135.532 193.635 135.769 193.428 135.976H193.426Z" fill="#F1B406"/>
<path d="M128.066 116.567H131.199V118.8H128.066V116.567Z" fill="#F1B406"/>
<path d="M120.233 131.083H131.199V133.317H120.233V131.083Z" fill="#F1B406"/>
<path d="M134.333 131.083H139.033V133.317H134.333V131.083Z" fill="#F1B406"/>
</svg>
