<svg width="300" height="300" viewBox="0 0 300 300" fill="none" xmlns="http://www.w3.org/2000/svg">
<circle cx="150" cy="150" r="148.5" fill="#380F63" stroke="#380F63" stroke-width="3"/>
<path d="M197.99 205.716L204.613 218.29C205.002 218.989 205.697 219.53 206.55 219.797C207.402 220.065 208.344 220.038 209.174 219.722C210.003 219.406 210.654 218.826 210.986 218.106C211.319 217.387 211.306 216.585 210.952 215.873L204.327 203.301C204.143 202.945 203.878 202.623 203.546 202.354C203.215 202.085 202.824 201.874 202.397 201.734C201.97 201.594 201.514 201.527 201.056 201.538C200.598 201.548 200.147 201.635 199.729 201.795C199.311 201.954 198.934 202.182 198.621 202.466C198.307 202.749 198.062 203.083 197.9 203.448C197.739 203.812 197.663 204.2 197.679 204.59C197.694 204.979 197.8 205.362 197.99 205.716V205.716Z" fill="#F1B406"/>
<path d="M239.758 146.043C244.794 141.743 250 137.297 250 131.449C250 125.601 244.794 121.154 239.758 116.858C236.556 114.123 233.247 111.288 232.261 108.713C231.201 105.938 231.931 101.862 232.638 97.9114C233.691 92.0383 234.778 85.9642 230.902 81.4328C226.985 76.8557 219.813 75.8634 212.878 74.9014C208.287 74.2651 203.542 73.6069 200.825 71.926C198.165 70.2788 195.992 66.6755 193.893 63.1904C190.669 57.8404 187.324 52.2997 180.906 50.5276C174.755 48.8281 168.36 51.5554 162.182 54.1967C157.932 56.0143 153.538 57.8927 149.996 57.8927C146.455 57.8927 142.06 56.0143 137.81 54.1967C131.632 51.5571 125.241 48.8264 119.087 50.5276C112.668 52.2997 109.329 57.8404 106.099 63.1972C104 66.684 101.829 70.2855 99.1687 71.9344C96.4525 73.6221 91.7047 74.2735 87.1136 74.9081C80.1794 75.8701 73.007 76.8625 69.0905 81.4412C65.2157 85.9727 66.3029 92.045 67.3545 97.9182C68.0608 101.861 68.7909 105.936 67.7314 108.719C66.7394 111.303 63.436 114.13 60.2337 116.864C55.1982 121.156 50 125.601 50 131.449C50 137.297 55.2061 141.744 60.2417 146.043C63.4439 148.775 66.7533 151.612 67.7394 154.188C68.7989 156.962 68.0687 161.038 67.3624 164.979C66.3089 170.854 65.2216 176.928 69.0984 181.459C73.015 186.038 80.1853 187.029 87.1215 187.991C88.2326 188.144 89.3516 188.299 90.4508 188.472L67.8505 231.339C67.5829 231.85 67.4913 232.415 67.5865 232.968C67.6816 233.522 67.9595 234.041 68.3879 234.465C68.8163 234.89 69.3775 235.202 70.0062 235.365C70.635 235.529 71.3055 235.537 71.9396 235.39L95.2284 229.942L105.942 248.348C106.229 248.842 106.672 249.257 107.222 249.548C107.771 249.838 108.406 249.992 109.053 249.992H109.121C109.779 249.981 110.42 249.811 110.969 249.502C111.518 249.193 111.953 248.758 112.222 248.246L131.784 211.127C133.806 210.408 135.824 209.549 137.818 208.697C142.06 206.886 146.455 205.008 149.996 205.008C153.538 205.008 157.932 206.886 162.182 208.702C164.176 209.554 166.19 210.407 168.214 211.126L187.778 248.255C188.047 248.766 188.482 249.201 189.031 249.51C189.58 249.819 190.221 249.989 190.879 250H190.947C191.594 250 192.229 249.847 192.778 249.556C193.328 249.266 193.771 248.85 194.058 248.356L204.772 229.95L228.06 235.398C228.695 235.546 229.365 235.537 229.994 235.374C230.623 235.21 231.184 234.898 231.612 234.474C232.04 234.049 232.318 233.53 232.414 232.977C232.509 232.423 232.417 231.858 232.15 231.348L209.549 188.48C210.648 188.311 211.767 188.153 212.878 187.999C219.813 187.039 226.985 186.046 230.902 181.468C234.776 176.938 233.689 170.864 232.638 164.991C231.931 161.048 231.201 156.972 232.261 154.189C233.247 151.604 236.556 148.775 239.758 146.043ZM108.889 240.124L100.173 225.147C99.8155 224.532 99.2177 224.042 98.4819 223.761C97.7461 223.481 96.9184 223.427 96.141 223.609L77.1934 228.041L97.2204 190.051C97.9052 190.297 98.5576 190.604 99.1667 190.966C101.827 192.613 104 196.216 106.099 199.702C109.329 205.06 112.668 210.601 119.087 212.373C120.429 212.737 121.832 212.911 123.241 212.888L108.889 240.124ZM222.799 228.041L203.851 223.609C203.074 223.426 202.246 223.48 201.51 223.761C200.774 224.041 200.176 224.532 199.819 225.147L191.104 240.124L176.753 212.898H176.896C178.257 212.903 179.61 212.724 180.906 212.369C187.324 210.596 190.663 205.057 193.893 199.698C195.992 196.213 198.163 192.61 200.823 190.963C201.433 190.6 202.086 190.294 202.772 190.048L222.799 228.041ZM225.656 152.368C224.088 156.475 224.943 161.256 225.773 165.87C226.614 170.563 227.483 175.416 225.287 177.983C223.051 180.595 217.311 181.392 211.761 182.16C206.369 182.907 200.792 183.679 196.738 186.188C192.738 188.664 190.191 192.903 187.713 197.006C185.134 201.296 182.453 205.733 178.761 206.753C175.314 207.705 170.229 205.526 165.299 203.423C160.327 201.296 155.18 199.099 149.996 199.099C144.812 199.099 139.665 201.293 134.693 203.423C129.759 205.526 124.67 207.706 121.227 206.754C117.535 205.742 114.861 201.298 112.275 197.008C109.805 192.905 107.25 188.666 103.25 186.19C99.1945 183.68 93.6173 182.907 88.2247 182.16C82.6693 181.392 76.9374 180.597 74.7014 177.983C72.5051 175.417 73.3741 170.557 74.2153 165.87C75.0446 161.249 75.8998 156.469 74.3324 152.368C72.8324 148.441 68.9278 145.111 65.1482 141.879C61.1107 138.425 56.9442 134.857 56.9442 131.449C56.9442 128.042 61.1226 124.474 65.1621 121.026C68.9318 117.799 72.8443 114.464 74.3443 110.537C75.9117 106.431 75.0565 101.651 74.2272 97.0355C73.386 92.3437 72.517 87.4899 74.7133 84.9246C76.9493 82.3087 82.6892 81.5155 88.2386 80.7459C93.6312 79.9999 99.2084 79.2269 103.262 76.7173C107.262 74.2415 109.809 70.0003 112.287 65.8992C114.866 61.6091 117.547 57.1721 121.239 56.1527C124.684 55.1992 129.771 57.378 134.701 59.4826C139.673 61.6091 144.82 63.8064 150.004 63.8064C155.188 63.8064 160.335 61.6124 165.307 59.4826C170.231 57.378 175.328 55.2009 178.769 56.1527C182.461 57.1654 185.136 61.6091 187.721 65.8992C190.191 70.0003 192.746 74.2415 196.746 76.7173C200.802 79.2269 206.377 79.9999 211.769 80.7459C217.325 81.5155 223.059 82.3104 225.295 84.9246C227.491 87.4916 226.622 92.3505 225.781 97.0372C224.951 101.658 224.096 106.438 225.664 110.539C227.164 114.466 231.068 117.796 234.846 121.028C238.885 124.476 243.064 128.044 243.064 131.451C243.064 134.859 238.885 138.426 234.848 141.876C231.06 145.106 227.156 148.436 225.656 152.363V152.368Z" fill="#F1B406"/>
<path d="M149.996 73.082C136.424 73.0817 123.158 76.5047 111.873 82.9183C100.588 89.3318 91.7932 98.4478 86.5994 109.113C81.4056 119.779 80.0466 131.515 82.6941 142.838C85.3417 154.161 91.877 164.561 101.474 172.724C111.07 180.887 123.297 186.446 136.608 188.699C149.919 190.951 163.716 189.795 176.254 185.377C188.793 180.959 199.509 173.477 207.049 163.878C214.589 154.279 218.613 142.994 218.612 131.449C218.592 115.975 211.356 101.139 198.492 90.1967C185.629 79.2544 168.188 73.0995 149.996 73.082ZM149.996 183.911C137.798 183.912 125.874 180.835 115.731 175.071C105.589 169.306 97.6834 161.113 93.0152 151.527C88.3469 141.941 87.1253 131.392 89.5047 121.216C91.8842 111.039 97.758 101.691 106.383 94.3537C115.008 87.0165 125.998 82.0199 137.961 79.9955C149.925 77.9711 162.326 79.0099 173.595 82.9806C184.865 86.9512 194.497 93.6754 201.274 102.303C208.051 110.93 211.668 121.073 211.668 131.449C211.65 145.358 205.146 158.693 193.585 168.528C182.023 178.363 166.347 183.895 149.996 183.911Z" fill="#F1B406"/>
<path d="M186.064 99H181.391C179.337 99 179.337 101.285 181.391 101.285H186.064C190.889 101.285 194.815 104.093 194.815 107.544V133.99C194.815 137.441 190.89 140.249 186.064 140.249H180.764C180.415 140.249 180.075 140.331 179.797 140.484L170.073 145.822V141.391C170.073 140.76 169.36 140.249 168.481 140.249H149.102C147.515 140.249 145.99 139.948 144.645 139.376V126.548C144.645 124.146 142.94 122.023 140.351 120.767V107.544C140.351 104.093 144.277 101.285 149.102 101.285H171.414C173.467 101.285 173.467 99 171.414 99H149.102C142.521 99 137.166 102.833 137.166 107.544V119.762C136.437 119.637 135.678 119.569 134.896 119.569H105.749C100.373 119.569 96 122.7 96 126.548V129.016C96 130.49 99.1844 130.49 99.1844 129.016V126.548C99.1844 123.96 102.129 121.855 105.749 121.855H134.896C138.516 121.855 141.461 123.96 141.461 126.548V139.831C141.442 139.932 141.443 140.034 141.461 140.134V147.404C141.461 147.547 141.449 147.69 141.431 147.833H138.147C134.529 147.833 131.513 149.707 130.888 152.17C130.743 152.209 130.604 152.264 130.475 152.335L123.353 156.282V153.24C123.353 152.609 122.641 152.097 121.761 152.097H105.749C102.129 152.097 99.1844 149.992 99.1844 147.404V135.872C99.1844 134.398 96 134.398 96 135.872V147.404C96 151.252 100.373 154.383 105.749 154.383H120.169V158.608C120.169 159.525 121.72 160.075 122.735 159.513L130.767 155.062V167.917C130.767 170.831 134.078 173.202 138.148 173.202H147.918V175.868C147.918 176.785 149.469 177.335 150.484 176.773L156.928 173.202H158.832C162.901 173.202 166.213 170.831 166.213 167.917V165.888C166.213 164.415 163.028 164.415 163.028 165.888V167.917C163.028 169.571 161.146 170.916 158.832 170.916H156.385C156.032 170.916 155.69 171 155.412 171.155L151.103 173.542V172.059C151.103 171.428 150.39 170.916 149.51 170.916H138.147C135.834 170.916 133.951 169.571 133.951 167.917V153.117C133.951 151.464 135.833 150.118 138.147 150.118H158.832C161.146 150.118 163.028 151.464 163.028 153.117V158.727C163.028 160.201 166.213 160.201 166.213 158.727V153.118C166.213 150.204 162.901 147.833 158.832 147.833H144.627C144.639 147.69 144.645 141.918 144.645 141.918C146.049 142.324 147.555 142.534 149.103 142.534H166.889V148.135C166.889 149.05 168.433 149.6 169.448 149.043L181.304 142.534H186.064C192.646 142.534 198 138.701 198 133.99V107.544C198 102.833 192.645 99 186.064 99V99Z" fill="#F1B406"/>
<path d="M171.775 107.523C169.753 107.148 167.693 108.309 167.693 109.826C167.693 111.484 166.861 113.082 165.352 114.325L160.965 117.931C160.681 117.615 160.191 117.405 159.632 117.405H151.068C150.188 117.405 149.476 117.923 149.476 118.562V132.56C149.476 133.199 150.188 133.717 151.068 133.717H159.632C160.275 133.717 160.828 133.439 161.079 133.04C162.813 133.81 164.822 134.226 166.866 134.226H182C184.313 134.226 186.221 132.768 186.112 131.092C186.064 130.35 186.117 120.385 186.117 120.164C186.117 118.515 184.27 117.173 182.005 117.173L174.135 117.156L174.461 116.595C175.95 114.033 175.705 111.062 173.806 108.647C173.362 108.083 172.641 107.684 171.775 107.523C170.908 107.363 172.641 107.684 171.775 107.523C169.753 107.148 172.641 107.684 171.775 107.523V107.523ZM158.039 131.403H152.66V119.718H158.039V131.403ZM182 119.486C182.514 119.486 182.933 119.79 182.933 120.163C182.933 120.384 182.929 120.981 182.925 121.791C182.902 126.262 182.886 130.497 182.931 131.201C182.948 131.455 182.778 131.624 182.675 131.702C182.497 131.838 182.257 131.912 182 131.912H166.866C165.062 131.912 163.296 131.458 161.894 130.633L161.224 130.239V121.212L167.739 115.856C169.763 114.19 170.877 112.048 170.877 109.826C170.877 109.761 171 109.744 171.041 109.795C172.451 111.587 172.633 113.793 171.527 115.695L170.271 117.857C170.063 118.214 170.116 118.622 170.409 118.945C170.703 119.268 171.2 119.463 171.733 119.464L182 119.486Z" fill="#F1B406"/>
<path d="M109.488 138.554C108.602 138.554 107.884 139.065 107.884 139.695C107.884 140.326 108.602 140.837 109.488 140.837H114.219L113.335 144.639C113.191 145.261 113.782 145.849 114.657 145.952C114.746 145.963 114.834 145.968 114.92 145.968C115.692 145.968 116.372 145.571 116.502 145.012L117.472 140.837H121.344L120.46 144.64C120.315 145.262 120.907 145.849 121.781 145.952C121.87 145.963 121.958 145.968 122.045 145.968C122.816 145.968 123.496 145.571 123.627 145.012L124.597 140.837H131.036C131.922 140.837 132.641 140.326 132.641 139.696C132.641 139.065 131.922 138.554 131.036 138.554H125.127L125.775 135.769H131.036C131.922 135.769 132.641 135.258 132.641 134.627C132.641 133.997 131.922 133.486 131.036 133.486H126.305L127.189 129.683C127.334 129.061 126.742 128.473 125.868 128.371C124.992 128.267 124.167 128.689 124.022 129.311L123.052 133.485H119.181L120.064 129.683C120.209 129.061 119.617 128.473 118.743 128.37C117.866 128.267 117.043 128.689 116.898 129.311L115.928 133.485H109.488C108.602 133.485 107.884 133.996 107.884 134.627C107.884 135.257 108.602 135.769 109.488 135.769H115.397L114.75 138.554H109.488ZM118.65 135.769H122.522L121.875 138.554H118.003L118.65 135.769Z" fill="#F1B406"/>
<path d="M148.961 156.083C147.639 155.31 145.88 155.006 144.116 155.31C141.855 155.7 139.573 157.199 139.573 159.672C139.573 161.21 140.364 162.546 141.992 163.755C143.322 164.743 145.241 165.682 148.214 166.8C148.454 166.89 148.717 166.936 148.981 166.936C149.244 166.936 149.508 166.89 149.748 166.8C154.934 164.849 158.389 162.89 158.389 159.672C158.389 157.186 156.026 155.701 153.684 155.333C151.925 155.056 150.22 155.35 148.961 156.083V156.083ZM155.114 159.672C155.114 161.408 153.491 162.691 148.981 164.453C144.47 162.691 142.847 161.407 142.847 159.672C142.847 158.38 143.901 157.738 144.888 157.568C145.07 157.537 145.265 157.519 145.465 157.519C146.207 157.519 147.023 157.762 147.526 158.454C147.812 158.848 148.392 159.092 149.013 159.083C149.637 159.074 150.2 158.814 150.464 158.413C150.994 157.607 152.108 157.465 152.975 157.602C154.009 157.764 155.114 158.394 155.114 159.672V159.672Z" fill="#F1B406"/>
</svg>
