<svg width="17" height="20" viewBox="0 0 17 20" fill="none" xmlns="http://www.w3.org/2000/svg">
<path d="M16.3929 1.21429H11.8393L11.4826 0.504694C11.407 0.35299 11.2906 0.225379 11.1465 0.136219C11.0024 0.047058 10.8362 -0.0001149 10.6667 6.65304e-06H6.32946C6.16037 -0.00064339 5.99451 0.0463537 5.85089 0.135613C5.70726 0.224873 5.59169 0.352785 5.51741 0.504694L5.16071 1.21429H0.607143C0.446119 1.21429 0.291689 1.27826 0.177828 1.39212C0.0639667 1.50598 0 1.66041 0 1.82144L0 3.03572C0 3.19674 0.0639667 3.35117 0.177828 3.46504C0.291689 3.5789 0.446119 3.64286 0.607143 3.64286H16.3929C16.5539 3.64286 16.7083 3.5789 16.8222 3.46504C16.936 3.35117 17 3.19674 17 3.03572V1.82144C17 1.66041 16.936 1.50598 16.8222 1.39212C16.7083 1.27826 16.5539 1.21429 16.3929 1.21429ZM2.01875 17.721C2.04771 18.1834 2.2518 18.6174 2.58949 18.9347C2.92717 19.2519 3.37306 19.4285 3.83638 19.4286H13.1636C13.6269 19.4285 14.0728 19.2519 14.4105 18.9347C14.7482 18.6174 14.9523 18.1834 14.9812 17.721L15.7857 4.85715H1.21429L2.01875 17.721Z" fill="#B5143F"/>
</svg>
